<svg xmlns="http://www.w3.org/2000/svg" xmlns:xlink="http://www.w3.org/1999/xlink" width="489" zoomAndPan="magnify" viewBox="0 0 366.75 207.75" height="277" preserveAspectRatio="xMidYMid meet" version="1.0"><defs><clipPath id="a49d6fb9ce"><path d="M 11 13 L 359 13 L 359 199 L 11 199 Z M 11 13 " clip-rule="nonzero"/></clipPath><clipPath id="3bd547d4bb"><path d="M 266.203125 198.429688 C 240.261719 198.429688 215.253906 186.445312 197.597656 165.523438 C 182.863281 148.089844 178.742188 128.441406 174.761719 109.4375 C 172.121094 96.851562 169.632812 84.957031 164.160156 74.121094 C 152.25 50.492188 129.046875 35.8125 103.613281 35.8125 C 102.160156 35.8125 100.707031 35.859375 99.257812 35.949219 C 97.808594 36.039062 96.363281 36.171875 94.917969 36.351562 C 93.476562 36.53125 92.042969 36.757812 90.613281 37.023438 C 89.1875 37.292969 87.769531 37.605469 86.359375 37.960938 C 84.953125 38.316406 83.554688 38.714844 82.171875 39.160156 C 80.789062 39.601562 79.417969 40.085938 78.066406 40.613281 C 76.710938 41.140625 75.375 41.710938 74.054688 42.320312 C 72.738281 42.929688 71.441406 43.582031 70.160156 44.273438 C 68.882812 44.964844 67.628906 45.691406 66.394531 46.460938 C 65.160156 47.230469 63.953125 48.035156 62.769531 48.878906 C 61.585938 49.722656 60.429688 50.601562 59.300781 51.515625 C 58.171875 52.429688 57.074219 53.378906 56.003906 54.363281 C 54.933594 55.347656 53.894531 56.363281 52.890625 57.410156 C 51.882812 58.457031 50.90625 59.535156 49.96875 60.640625 C 49.027344 61.75 48.121094 62.886719 47.253906 64.046875 C 46.382812 65.210938 45.550781 66.402344 44.753906 67.617188 C 43.957031 68.832031 43.199219 70.070312 42.480469 71.332031 C 41.761719 72.597656 41.082031 73.878906 40.441406 75.183594 C 39.800781 76.488281 39.203125 77.8125 38.644531 79.152344 C 38.085938 80.496094 37.570312 81.851562 37.09375 83.226562 C 36.621094 84.597656 36.191406 85.984375 35.800781 87.386719 C 35.414062 88.785156 35.070312 90.195312 34.769531 91.617188 C 34.46875 93.039062 34.210938 94.46875 34 95.90625 C 33.789062 97.34375 33.621094 98.785156 33.496094 100.234375 C 33.375 101.683594 33.296875 103.132812 33.265625 104.585938 C 33.230469 106.039062 33.242188 107.488281 33.300781 108.941406 C 33.359375 110.394531 33.460938 111.84375 33.605469 113.289062 C 33.753906 114.734375 33.945312 116.171875 34.179688 117.605469 C 34.417969 119.039062 34.695312 120.464844 35.019531 121.882812 C 35.34375 123.296875 35.714844 124.703125 36.125 126.097656 C 36.535156 127.488281 36.988281 128.867188 37.488281 130.234375 C 37.984375 131.597656 38.523438 132.949219 39.101562 134.28125 C 39.683594 135.613281 40.304688 136.925781 40.964844 138.21875 C 41.625 139.511719 42.328125 140.785156 43.066406 142.035156 C 43.808594 143.285156 44.585938 144.511719 45.402344 145.710938 C 46.21875 146.914062 47.070312 148.089844 47.960938 149.238281 C 48.851562 150.386719 49.773438 151.507812 50.734375 152.601562 C 51.691406 153.691406 52.683594 154.753906 53.707031 155.785156 C 54.730469 156.8125 55.785156 157.8125 56.871094 158.777344 C 57.957031 159.742188 59.074219 160.671875 60.21875 161.570312 C 61.363281 162.464844 62.53125 163.324219 63.730469 164.148438 C 64.925781 164.972656 66.148438 165.757812 67.394531 166.503906 C 68.640625 167.253906 69.90625 167.960938 71.195312 168.632812 C 72.484375 169.300781 73.792969 169.929688 75.125 170.515625 C 76.453125 171.105469 77.796875 171.652344 79.160156 172.15625 C 80.523438 172.660156 81.898438 173.125 83.289062 173.542969 C 84.679688 173.964844 86.082031 174.339844 87.496094 174.671875 C 88.914062 175.003906 90.335938 175.292969 91.769531 175.539062 C 93.199219 175.78125 94.636719 175.984375 96.082031 176.136719 C 97.527344 176.292969 98.976562 176.402344 100.425781 176.46875 C 101.878906 176.535156 103.332031 176.554688 104.785156 176.53125 C 106.234375 176.507812 107.6875 176.4375 109.136719 176.324219 C 110.582031 176.210938 112.027344 176.050781 113.464844 175.847656 C 114.90625 175.644531 116.335938 175.398438 117.757812 175.105469 C 119.183594 174.8125 120.59375 174.476562 121.996094 174.097656 C 123.398438 173.71875 124.789062 173.292969 126.164062 172.828125 C 127.542969 172.363281 128.902344 171.855469 130.246094 171.304688 C 131.59375 170.753906 132.917969 170.164062 134.226562 169.53125 C 135.535156 168.898438 136.820312 168.226562 138.089844 167.515625 C 139.355469 166.804688 140.597656 166.054688 141.820312 165.265625 C 143.039062 164.476562 144.234375 163.648438 145.402344 162.785156 C 146.570312 161.925781 147.710938 161.027344 148.824219 160.09375 C 149.9375 159.160156 151.023438 158.191406 152.074219 157.191406 C 153.128906 156.191406 154.148438 155.15625 155.140625 154.09375 C 155.316406 153.902344 155.492188 153.714844 155.660156 153.523438 C 156.140625 152.972656 156.667969 152.476562 157.246094 152.035156 C 157.824219 151.589844 158.4375 151.207031 159.09375 150.886719 C 159.746094 150.566406 160.425781 150.3125 161.128906 150.128906 C 161.835938 149.941406 162.550781 149.828125 163.277344 149.789062 C 164.003906 149.746094 164.730469 149.777344 165.453125 149.878906 C 166.171875 149.980469 166.875 150.152344 167.5625 150.398438 C 168.25 150.640625 168.90625 150.949219 169.53125 151.324219 C 170.15625 151.699219 170.738281 152.128906 171.277344 152.621094 C 171.8125 153.109375 172.300781 153.648438 172.730469 154.238281 C 173.160156 154.824219 173.53125 155.449219 173.835938 156.109375 C 174.140625 156.769531 174.378906 157.457031 174.550781 158.164062 C 174.71875 158.871094 174.816406 159.589844 174.84375 160.320312 C 174.867188 161.046875 174.820312 161.769531 174.703125 162.488281 C 174.585938 163.207031 174.398438 163.90625 174.136719 164.589844 C 173.878906 165.269531 173.558594 165.917969 173.167969 166.535156 C 172.78125 167.152344 172.335938 167.722656 171.832031 168.25 L 171.152344 168.988281 C 169.855469 170.382812 168.515625 171.738281 167.132812 173.050781 C 165.753906 174.359375 164.332031 175.628906 162.875 176.851562 C 161.414062 178.078125 159.917969 179.253906 158.386719 180.382812 C 156.855469 181.515625 155.289062 182.597656 153.691406 183.632812 C 152.089844 184.667969 150.460938 185.648438 148.800781 186.582031 C 147.140625 187.515625 145.453125 188.398438 143.738281 189.226562 C 142.023438 190.054688 140.285156 190.828125 138.519531 191.550781 C 136.757812 192.269531 134.976562 192.9375 133.171875 193.546875 C 131.367188 194.15625 129.546875 194.710938 127.707031 195.210938 C 125.867188 195.707031 124.015625 196.148438 122.152344 196.53125 C 120.285156 196.914062 118.410156 197.238281 116.523438 197.503906 C 114.636719 197.769531 112.746094 197.980469 110.847656 198.128906 C 108.949219 198.277344 107.046875 198.367188 105.140625 198.398438 C 103.238281 198.433594 101.335938 198.40625 99.433594 198.316406 C 97.53125 198.230469 95.632812 198.085938 93.738281 197.882812 C 91.84375 197.679688 89.957031 197.417969 88.082031 197.097656 C 86.203125 196.777344 84.339844 196.398438 82.484375 195.960938 C 80.628906 195.523438 78.792969 195.03125 76.96875 194.480469 C 75.144531 193.933594 73.339844 193.324219 71.554688 192.664062 C 69.769531 192.003906 68.003906 191.285156 66.265625 190.515625 C 64.523438 189.742188 62.804688 188.917969 61.117188 188.042969 C 59.425781 187.164062 57.765625 186.234375 56.132812 185.253906 C 54.5 184.273438 52.898438 183.246094 51.328125 182.164062 C 49.757812 181.085938 48.226562 179.957031 46.726562 178.785156 C 45.226562 177.609375 43.765625 176.390625 42.339844 175.125 C 40.917969 173.859375 39.535156 172.550781 38.191406 171.199219 C 36.847656 169.851562 35.550781 168.457031 34.292969 167.027344 C 33.035156 165.597656 31.824219 164.128906 30.660156 162.621094 C 29.496094 161.113281 28.378906 159.574219 27.308594 158 C 26.238281 156.421875 25.21875 154.816406 24.246094 153.175781 C 23.277344 151.539062 22.355469 149.871094 21.488281 148.175781 C 20.621094 146.480469 19.808594 144.757812 19.046875 143.011719 C 18.289062 141.265625 17.582031 139.5 16.929688 137.707031 C 16.28125 135.917969 15.683594 134.109375 15.144531 132.285156 C 14.605469 130.457031 14.125 128.617188 13.699219 126.757812 C 13.273438 124.902344 12.90625 123.035156 12.597656 121.15625 C 12.289062 119.277344 12.039062 117.390625 11.84375 115.496094 C 11.652344 113.601562 11.519531 111.699219 11.445312 109.796875 C 11.371094 107.894531 11.355469 105.992188 11.398438 104.085938 C 11.441406 102.183594 11.542969 100.28125 11.703125 98.382812 C 11.863281 96.488281 12.085938 94.597656 12.363281 92.710938 C 12.640625 90.828125 12.976562 88.953125 13.371094 87.089844 C 13.765625 85.226562 14.214844 83.378906 14.726562 81.542969 C 15.234375 79.707031 15.796875 77.890625 16.417969 76.089844 C 17.039062 74.289062 17.71875 72.507812 18.449219 70.75 C 19.179688 68.992188 19.964844 67.257812 20.804688 65.546875 C 21.644531 63.839844 22.535156 62.15625 23.476562 60.5 C 24.421875 58.847656 25.414062 57.222656 26.457031 55.628906 C 27.5 54.039062 28.59375 52.476562 29.734375 50.953125 C 30.875 49.425781 32.0625 47.9375 33.292969 46.488281 C 34.527344 45.035156 35.800781 43.621094 37.121094 42.25 C 38.441406 40.875 39.804688 39.546875 41.207031 38.257812 C 42.609375 36.96875 44.050781 35.726562 45.53125 34.527344 C 47.007812 33.328125 48.523438 32.175781 50.074219 31.070312 C 51.625 29.964844 53.210938 28.90625 54.824219 27.898438 C 56.441406 26.890625 58.089844 25.9375 59.765625 25.03125 C 61.441406 24.125 63.140625 23.273438 64.871094 22.472656 C 66.597656 21.671875 68.351562 20.925781 70.125 20.234375 C 71.898438 19.542969 73.695312 18.910156 75.507812 18.328125 C 77.320312 17.746094 79.152344 17.222656 81 16.757812 C 82.84375 16.289062 84.703125 15.882812 86.574219 15.53125 C 88.445312 15.175781 90.328125 14.882812 92.21875 14.648438 C 94.109375 14.414062 96.003906 14.238281 97.90625 14.121094 C 99.804688 14 101.707031 13.941406 103.613281 13.941406 C 137.320312 13.941406 168.039062 33.207031 183.695312 64.273438 C 190.453125 77.675781 193.328125 91.5625 196.167969 104.957031 C 199.757812 122.054688 203.136719 138.203125 214.308594 151.414062 C 227.800781 167.382812 246.714844 176.542969 266.203125 176.542969 C 267.644531 176.542969 269.082031 176.496094 270.519531 176.410156 C 271.957031 176.320312 273.390625 176.1875 274.820312 176.011719 C 276.25 175.835938 277.675781 175.617188 279.089844 175.351562 C 280.507812 175.089844 281.914062 174.78125 283.3125 174.429688 C 284.707031 174.082031 286.09375 173.6875 287.464844 173.253906 C 288.839844 172.816406 290.199219 172.339844 291.542969 171.824219 C 292.886719 171.304688 294.210938 170.746094 295.523438 170.144531 C 296.832031 169.542969 298.121094 168.90625 299.390625 168.226562 C 300.660156 167.546875 301.910156 166.828125 303.136719 166.070312 C 304.363281 165.316406 305.5625 164.523438 306.742188 163.695312 C 307.917969 162.863281 309.070312 162 310.195312 161.097656 C 311.316406 160.199219 312.414062 159.261719 313.480469 158.296875 C 314.546875 157.328125 315.585938 156.328125 316.589844 155.296875 C 317.59375 154.265625 318.566406 153.203125 319.507812 152.113281 C 320.449219 151.023438 321.355469 149.902344 322.226562 148.757812 C 323.097656 147.609375 323.933594 146.4375 324.734375 145.238281 C 325.53125 144.039062 326.296875 142.820312 327.019531 141.574219 C 327.746094 140.328125 328.429688 139.0625 329.078125 137.777344 C 329.722656 136.488281 330.332031 135.183594 330.898438 133.859375 C 331.464844 132.535156 331.988281 131.195312 332.472656 129.835938 C 332.957031 128.480469 333.398438 127.109375 333.800781 125.726562 C 334.199219 124.34375 334.558594 122.949219 334.871094 121.542969 C 335.1875 120.136719 335.457031 118.722656 335.6875 117.300781 C 335.914062 115.878906 336.097656 114.449219 336.238281 113.015625 C 336.378906 111.582031 336.472656 110.144531 336.523438 108.707031 C 336.578125 107.265625 336.585938 105.828125 336.546875 104.386719 C 336.511719 102.949219 336.429688 101.511719 336.304688 100.074219 C 336.179688 98.640625 336.011719 97.210938 335.800781 95.785156 C 335.585938 94.359375 335.328125 92.945312 335.03125 91.535156 C 334.730469 90.125 334.386719 88.726562 334.003906 87.339844 C 333.617188 85.953125 333.1875 84.578125 332.71875 83.214844 C 332.25 81.855469 331.738281 80.507812 331.183594 79.175781 C 330.632812 77.847656 330.039062 76.535156 329.40625 75.242188 C 328.773438 73.949219 328.097656 72.675781 327.386719 71.421875 C 326.675781 70.167969 325.925781 68.941406 325.140625 67.734375 C 324.351562 66.527344 323.53125 65.347656 322.671875 64.191406 C 321.8125 63.035156 320.917969 61.90625 319.988281 60.804688 C 319.058594 59.703125 318.097656 58.632812 317.101562 57.589844 C 316.109375 56.546875 315.082031 55.539062 314.027344 54.558594 C 312.96875 53.582031 311.882812 52.636719 310.769531 51.722656 C 309.652344 50.808594 308.511719 49.933594 307.34375 49.089844 C 306.175781 48.25 304.980469 47.445312 303.761719 46.675781 C 302.542969 45.90625 301.304688 45.175781 300.042969 44.480469 C 298.777344 43.789062 297.496094 43.136719 296.191406 42.523438 C 294.890625 41.910156 293.566406 41.335938 292.230469 40.804688 C 290.890625 40.269531 289.539062 39.777344 288.167969 39.328125 C 286.800781 38.878906 285.417969 38.472656 284.027344 38.109375 C 282.632812 37.742188 281.230469 37.421875 279.816406 37.140625 C 278.402344 36.863281 276.984375 36.628906 275.554688 36.4375 C 274.128906 36.246094 272.695312 36.097656 271.257812 35.996094 C 269.820312 35.890625 268.382812 35.832031 266.941406 35.816406 C 265.503906 35.800781 264.0625 35.832031 262.625 35.90625 C 261.183594 35.976562 259.75 36.097656 258.320312 36.257812 C 256.886719 36.417969 255.460938 36.625 254.042969 36.871094 C 252.625 37.121094 251.214844 37.414062 249.8125 37.75 C 248.414062 38.085938 247.023438 38.464844 245.648438 38.882812 C 244.269531 39.304688 242.90625 39.769531 241.554688 40.273438 C 240.207031 40.777344 238.875 41.324219 237.558594 41.910156 C 236.242188 42.496094 234.945312 43.121094 233.667969 43.789062 C 232.390625 44.453125 231.136719 45.160156 229.902344 45.902344 C 228.667969 46.644531 227.460938 47.425781 226.273438 48.242188 C 225.085938 49.0625 223.925781 49.914062 222.792969 50.800781 C 221.660156 51.691406 220.554688 52.613281 219.476562 53.570312 C 218.402344 54.527344 217.355469 55.515625 216.339844 56.535156 C 215.828125 57.027344 215.273438 57.460938 214.679688 57.84375 C 214.082031 58.226562 213.457031 58.546875 212.800781 58.808594 C 212.144531 59.066406 211.464844 59.261719 210.769531 59.390625 C 210.074219 59.519531 209.375 59.582031 208.667969 59.574219 C 207.960938 59.566406 207.261719 59.492188 206.566406 59.351562 C 205.875 59.207031 205.203125 59 204.550781 58.726562 C 203.898438 58.457031 203.277344 58.121094 202.691406 57.730469 C 202.101562 57.335938 201.558594 56.890625 201.054688 56.390625 C 200.554688 55.894531 200.105469 55.351562 199.710938 54.765625 C 199.3125 54.179688 198.976562 53.5625 198.703125 52.910156 C 198.425781 52.257812 198.214844 51.585938 198.066406 50.894531 C 197.921875 50.203125 197.84375 49.503906 197.832031 48.796875 C 197.824219 48.089844 197.878906 47.386719 198.007812 46.691406 C 198.132812 45.996094 198.324219 45.320312 198.582031 44.660156 C 198.835938 44 199.15625 43.375 199.535156 42.777344 C 199.914062 42.179688 200.34375 41.625 200.832031 41.109375 C 202.164062 39.773438 203.535156 38.476562 204.949219 37.222656 C 206.359375 35.96875 207.808594 34.761719 209.292969 33.59375 C 210.78125 32.429688 212.300781 31.3125 213.855469 30.242188 C 215.410156 29.167969 216.996094 28.148438 218.613281 27.171875 C 220.230469 26.199219 221.875 25.273438 223.550781 24.402344 C 225.226562 23.527344 226.925781 22.707031 228.648438 21.941406 C 230.375 21.171875 232.121094 20.457031 233.886719 19.792969 C 235.65625 19.132812 237.445312 18.527344 239.25 17.976562 C 241.054688 17.421875 242.875 16.925781 244.710938 16.488281 C 246.546875 16.046875 248.398438 15.664062 250.257812 15.339844 C 252.117188 15.011719 253.984375 14.742188 255.859375 14.53125 C 257.738281 14.320312 259.617188 14.167969 261.503906 14.070312 C 263.386719 13.972656 265.277344 13.9375 267.164062 13.957031 C 269.050781 13.976562 270.9375 14.054688 272.820312 14.1875 C 274.703125 14.324219 276.582031 14.519531 278.453125 14.769531 C 280.324219 15.019531 282.1875 15.328125 284.039062 15.691406 C 285.890625 16.058594 287.730469 16.480469 289.554688 16.957031 C 291.382812 17.4375 293.191406 17.96875 294.988281 18.558594 C 296.78125 19.148438 298.554688 19.792969 300.308594 20.492188 C 302.0625 21.1875 303.792969 21.941406 305.503906 22.746094 C 307.210938 23.550781 308.890625 24.40625 310.546875 25.3125 C 312.203125 26.222656 313.828125 27.179688 315.425781 28.1875 C 317.023438 29.195312 318.585938 30.25 320.117188 31.355469 C 321.652344 32.457031 323.148438 33.609375 324.609375 34.804688 C 326.070312 36 327.492188 37.238281 328.878906 38.523438 C 330.261719 39.804688 331.609375 41.128906 332.910156 42.496094 C 334.214844 43.863281 335.476562 45.265625 336.691406 46.710938 C 337.910156 48.152344 339.082031 49.632812 340.210938 51.148438 C 341.335938 52.660156 342.414062 54.210938 343.445312 55.792969 C 344.480469 57.371094 345.460938 58.984375 346.394531 60.625 C 347.324219 62.265625 348.207031 63.9375 349.039062 65.632812 C 349.867188 67.328125 350.644531 69.046875 351.371094 70.792969 C 352.09375 72.535156 352.765625 74.300781 353.382812 76.082031 C 353.996094 77.867188 354.558594 79.671875 355.0625 81.488281 C 355.570312 83.308594 356.019531 85.140625 356.410156 86.988281 C 356.804688 88.835938 357.140625 90.691406 357.417969 92.558594 C 357.699219 94.425781 357.917969 96.300781 358.082031 98.183594 C 358.246094 100.0625 358.351562 101.949219 358.402344 103.835938 C 358.449219 105.722656 358.441406 107.609375 358.371094 109.496094 C 358.304688 111.382812 358.179688 113.265625 357.996094 115.144531 C 357.8125 117.023438 357.570312 118.898438 357.273438 120.761719 C 356.972656 122.625 356.617188 124.480469 356.207031 126.320312 C 355.792969 128.164062 355.324219 129.992188 354.800781 131.804688 C 354.277344 133.621094 353.699219 135.414062 353.0625 137.195312 C 352.429688 138.972656 351.738281 140.730469 350.996094 142.464844 C 350.253906 144.199219 349.457031 145.914062 348.609375 147.601562 C 347.761719 149.285156 346.863281 150.945312 345.914062 152.578125 C 344.964844 154.210938 343.964844 155.8125 342.917969 157.382812 C 341.871094 158.953125 340.773438 160.488281 339.632812 161.992188 C 338.492188 163.496094 337.304688 164.960938 336.070312 166.394531 C 334.839844 167.824219 333.5625 169.214844 332.246094 170.566406 C 330.925781 171.917969 329.570312 173.230469 328.171875 174.496094 C 326.773438 175.765625 325.335938 176.992188 323.863281 178.171875 C 322.390625 179.351562 320.878906 180.484375 319.335938 181.574219 C 317.792969 182.660156 316.21875 183.703125 314.613281 184.691406 C 313.003906 185.683594 311.367188 186.625 309.703125 187.515625 C 308.039062 188.40625 306.347656 189.246094 304.632812 190.03125 C 302.914062 190.816406 301.175781 191.550781 299.414062 192.230469 C 297.652344 192.910156 295.875 193.535156 294.074219 194.105469 C 292.273438 194.679688 290.457031 195.191406 288.625 195.652344 C 286.796875 196.109375 284.953125 196.515625 283.09375 196.859375 C 281.238281 197.207031 279.375 197.496094 277.5 197.726562 C 275.625 197.957031 273.746094 198.128906 271.863281 198.246094 C 269.976562 198.363281 268.089844 198.421875 266.203125 198.421875 Z M 266.203125 198.429688 " clip-rule="nonzero"/></clipPath><clipPath id="db490836f7"><path d="M 7 8 L 355 8 L 355 194 L 7 194 Z M 7 8 " clip-rule="nonzero"/></clipPath><clipPath id="13975346ee"><path d="M 262.457031 193.183594 C 236.519531 193.183594 211.507812 181.203125 193.851562 160.277344 C 179.117188 142.847656 175 123.199219 171.019531 104.191406 C 168.378906 91.609375 165.890625 79.714844 160.414062 68.878906 C 148.503906 45.25 125.300781 30.570312 99.867188 30.570312 C 98.414062 30.570312 96.960938 30.613281 95.511719 30.703125 C 94.0625 30.792969 92.617188 30.929688 91.175781 31.109375 C 89.734375 31.289062 88.296875 31.511719 86.871094 31.78125 C 85.441406 32.050781 84.023438 32.359375 82.613281 32.71875 C 81.207031 33.074219 79.808594 33.472656 78.425781 33.914062 C 77.042969 34.359375 75.671875 34.84375 74.320312 35.371094 C 72.964844 35.898438 71.628906 36.46875 70.3125 37.078125 C 68.992188 37.6875 67.695312 38.339844 66.414062 39.027344 C 65.136719 39.71875 63.882812 40.449219 62.648438 41.21875 C 61.414062 41.984375 60.207031 42.792969 59.023438 43.636719 C 57.839844 44.480469 56.683594 45.359375 55.554688 46.273438 C 54.429688 47.1875 53.328125 48.136719 52.257812 49.121094 C 51.1875 50.101562 50.148438 51.117188 49.144531 52.164062 C 48.136719 53.210938 47.164062 54.289062 46.222656 55.398438 C 45.28125 56.503906 44.375 57.640625 43.507812 58.804688 C 42.636719 59.96875 41.804688 61.160156 41.007812 62.375 C 40.210938 63.589844 39.453125 64.828125 38.734375 66.089844 C 38.015625 67.351562 37.335938 68.636719 36.695312 69.941406 C 36.054688 71.246094 35.457031 72.566406 34.898438 73.910156 C 34.339844 75.25 33.824219 76.609375 33.351562 77.980469 C 32.875 79.355469 32.445312 80.742188 32.058594 82.140625 C 31.667969 83.542969 31.324219 84.953125 31.023438 86.375 C 30.722656 87.796875 30.46875 89.226562 30.253906 90.664062 C 30.042969 92.101562 29.875 93.542969 29.753906 94.992188 C 29.628906 96.4375 29.550781 97.886719 29.519531 99.339844 C 29.484375 100.792969 29.5 102.246094 29.554688 103.699219 C 29.613281 105.148438 29.714844 106.597656 29.859375 108.042969 C 30.007812 109.488281 30.199219 110.929688 30.433594 112.363281 C 30.671875 113.796875 30.953125 115.222656 31.277344 116.636719 C 31.601562 118.054688 31.96875 119.457031 32.378906 120.851562 C 32.789062 122.246094 33.246094 123.625 33.742188 124.992188 C 34.238281 126.355469 34.777344 127.703125 35.355469 129.035156 C 35.9375 130.367188 36.558594 131.679688 37.21875 132.976562 C 37.882812 134.269531 38.582031 135.539062 39.324219 136.789062 C 40.0625 138.039062 40.839844 139.265625 41.65625 140.46875 C 42.472656 141.671875 43.328125 142.847656 44.214844 143.996094 C 45.105469 145.144531 46.027344 146.265625 46.988281 147.355469 C 47.945312 148.449219 48.9375 149.511719 49.960938 150.539062 C 50.984375 151.570312 52.042969 152.570312 53.128906 153.535156 C 54.214844 154.5 55.328125 155.429688 56.472656 156.324219 C 57.617188 157.222656 58.785156 158.082031 59.984375 158.90625 C 61.179688 159.726562 62.402344 160.515625 63.648438 161.261719 C 64.894531 162.007812 66.160156 162.71875 67.449219 163.386719 C 68.738281 164.058594 70.050781 164.683594 71.378906 165.273438 C 72.707031 165.863281 74.050781 166.410156 75.414062 166.914062 C 76.777344 167.417969 78.152344 167.878906 79.542969 168.300781 C 80.933594 168.71875 82.339844 169.097656 83.753906 169.429688 C 85.167969 169.761719 86.589844 170.050781 88.023438 170.292969 C 89.453125 170.539062 90.894531 170.738281 92.335938 170.894531 C 93.78125 171.050781 95.230469 171.160156 96.679688 171.226562 C 98.132812 171.292969 99.585938 171.3125 101.039062 171.289062 C 102.492188 171.265625 103.941406 171.195312 105.390625 171.082031 C 106.839844 170.96875 108.28125 170.808594 109.71875 170.605469 C 111.160156 170.402344 112.589844 170.152344 114.011719 169.859375 C 115.4375 169.570312 116.847656 169.234375 118.25 168.855469 C 119.652344 168.472656 121.042969 168.050781 122.417969 167.585938 C 123.796875 167.121094 125.15625 166.613281 126.5 166.0625 C 127.847656 165.511719 129.171875 164.921875 130.480469 164.289062 C 131.789062 163.65625 133.078125 162.984375 134.34375 162.273438 C 135.609375 161.558594 136.851562 160.808594 138.074219 160.019531 C 139.292969 159.230469 140.488281 158.40625 141.65625 157.542969 C 142.824219 156.679688 143.964844 155.78125 145.078125 154.847656 C 146.191406 153.914062 147.277344 152.949219 148.328125 151.945312 C 149.382812 150.945312 150.40625 149.914062 151.394531 148.847656 C 151.570312 148.65625 151.746094 148.472656 151.914062 148.28125 C 152.394531 147.730469 152.921875 147.234375 153.5 146.789062 C 154.078125 146.347656 154.695312 145.964844 155.347656 145.644531 C 156 145.324219 156.679688 145.070312 157.386719 144.882812 C 158.089844 144.699219 158.804688 144.585938 159.53125 144.542969 C 160.261719 144.5 160.984375 144.53125 161.707031 144.632812 C 162.425781 144.738281 163.128906 144.910156 163.816406 145.152344 C 164.503906 145.398438 165.160156 145.707031 165.785156 146.078125 C 166.410156 146.453125 166.992188 146.886719 167.53125 147.375 C 168.070312 147.867188 168.554688 148.40625 168.984375 148.992188 C 169.414062 149.582031 169.785156 150.203125 170.089844 150.867188 C 170.394531 151.527344 170.632812 152.210938 170.804688 152.921875 C 170.972656 153.628906 171.070312 154.347656 171.097656 155.074219 C 171.121094 155.804688 171.078125 156.527344 170.957031 157.246094 C 170.839844 157.964844 170.652344 158.664062 170.394531 159.34375 C 170.132812 160.027344 169.8125 160.675781 169.421875 161.292969 C 169.035156 161.90625 168.589844 162.480469 168.089844 163.007812 L 167.40625 163.746094 C 166.109375 165.140625 164.769531 166.492188 163.390625 167.804688 C 162.007812 169.117188 160.589844 170.386719 159.128906 171.609375 C 157.667969 172.832031 156.175781 174.011719 154.640625 175.140625 C 153.109375 176.273438 151.542969 177.355469 149.945312 178.390625 C 148.34375 179.421875 146.714844 180.40625 145.054688 181.339844 C 143.394531 182.273438 141.707031 183.152344 139.992188 183.980469 C 138.277344 184.8125 136.539062 185.585938 134.777344 186.304688 C 133.011719 187.027344 131.230469 187.691406 129.425781 188.304688 C 127.621094 188.914062 125.800781 189.46875 123.960938 189.964844 C 122.121094 190.464844 120.269531 190.902344 118.40625 191.285156 C 116.539062 191.667969 114.664062 191.992188 112.777344 192.261719 C 110.890625 192.527344 109 192.734375 107.101562 192.886719 C 105.203125 193.035156 103.300781 193.125 101.398438 193.15625 C 99.492188 193.1875 97.589844 193.160156 95.6875 193.074219 C 93.785156 192.988281 91.886719 192.84375 89.992188 192.640625 C 88.097656 192.4375 86.214844 192.171875 84.335938 191.851562 C 82.457031 191.53125 80.59375 191.152344 78.738281 190.71875 C 76.886719 190.28125 75.046875 189.789062 73.222656 189.238281 C 71.398438 188.6875 69.59375 188.082031 67.808594 187.421875 C 66.023438 186.757812 64.261719 186.042969 62.519531 185.269531 C 60.777344 184.5 59.0625 183.675781 57.371094 182.796875 C 55.679688 181.921875 54.019531 180.992188 52.386719 180.011719 C 50.753906 179.03125 49.152344 178 47.582031 176.921875 C 46.015625 175.84375 44.480469 174.714844 42.980469 173.539062 C 41.480469 172.367188 40.019531 171.144531 38.597656 169.878906 C 37.171875 168.617188 35.789062 167.308594 34.445312 165.957031 C 33.105469 164.605469 31.804688 163.214844 30.546875 161.785156 C 29.292969 160.351562 28.082031 158.882812 26.914062 157.378906 C 25.75 155.871094 24.632812 154.332031 23.5625 152.753906 C 22.492188 151.179688 21.472656 149.570312 20.5 147.933594 C 19.53125 146.292969 18.613281 144.628906 17.746094 142.933594 C 16.878906 141.234375 16.0625 139.515625 15.304688 137.769531 C 14.542969 136.023438 13.835938 134.253906 13.183594 132.464844 C 12.535156 130.675781 11.9375 128.867188 11.398438 127.039062 C 10.859375 125.214844 10.378906 123.371094 9.953125 121.515625 C 9.527344 119.660156 9.160156 117.792969 8.851562 115.914062 C 8.542969 114.03125 8.292969 112.144531 8.101562 110.25 C 7.90625 108.355469 7.773438 106.457031 7.699219 104.554688 C 7.625 102.652344 7.609375 100.746094 7.652344 98.84375 C 7.695312 96.941406 7.796875 95.039062 7.957031 93.140625 C 8.117188 91.242188 8.339844 89.351562 8.617188 87.46875 C 8.894531 85.582031 9.230469 83.710938 9.625 81.847656 C 10.019531 79.984375 10.46875 78.132812 10.980469 76.300781 C 11.488281 74.464844 12.054688 72.644531 12.675781 70.84375 C 13.296875 69.046875 13.972656 67.265625 14.703125 65.507812 C 15.433594 63.75 16.21875 62.015625 17.058594 60.304688 C 17.898438 58.59375 18.789062 56.914062 19.730469 55.257812 C 20.675781 53.601562 21.667969 51.980469 22.710938 50.386719 C 23.757812 48.792969 24.847656 47.234375 25.988281 45.707031 C 27.128906 44.183594 28.316406 42.695312 29.546875 41.242188 C 30.78125 39.789062 32.058594 38.378906 33.378906 37.003906 C 34.695312 35.632812 36.058594 34.300781 37.460938 33.011719 C 38.863281 31.726562 40.304688 30.480469 41.785156 29.28125 C 43.261719 28.082031 44.777344 26.929688 46.328125 25.824219 C 47.878906 24.71875 49.464844 23.664062 51.082031 22.65625 C 52.695312 21.648438 54.34375 20.691406 56.019531 19.785156 C 57.695312 18.882812 59.394531 18.027344 61.125 17.230469 C 62.851562 16.429688 64.605469 15.683594 66.378906 14.992188 C 68.152344 14.300781 69.949219 13.664062 71.761719 13.085938 C 73.574219 12.503906 75.40625 11.980469 77.253906 11.511719 C 79.097656 11.046875 80.957031 10.636719 82.828125 10.285156 C 84.703125 9.933594 86.582031 9.640625 88.472656 9.40625 C 90.363281 9.171875 92.257812 8.992188 94.160156 8.875 C 96.058594 8.757812 97.960938 8.699219 99.867188 8.699219 C 133.578125 8.699219 164.292969 27.960938 179.949219 59.03125 C 186.707031 72.433594 189.582031 86.320312 192.421875 99.714844 C 196.011719 116.808594 199.390625 132.957031 210.5625 146.167969 C 224.054688 162.140625 242.972656 171.296875 262.457031 171.296875 C 263.898438 171.296875 265.335938 171.253906 266.777344 171.164062 C 268.214844 171.078125 269.648438 170.945312 271.078125 170.769531 C 272.507812 170.59375 273.929688 170.371094 275.34375 170.109375 C 276.761719 169.84375 278.167969 169.539062 279.566406 169.1875 C 280.960938 168.835938 282.347656 168.445312 283.722656 168.011719 C 285.09375 167.574219 286.453125 167.097656 287.796875 166.578125 C 289.140625 166.058594 290.46875 165.5 291.777344 164.902344 C 293.085938 164.300781 294.375 163.660156 295.644531 162.980469 C 296.917969 162.300781 298.164062 161.585938 299.390625 160.828125 C 300.617188 160.074219 301.820312 159.28125 302.996094 158.449219 C 304.171875 157.621094 305.324219 156.753906 306.449219 155.855469 C 307.574219 154.953125 308.667969 154.019531 309.734375 153.050781 C 310.800781 152.085938 311.839844 151.085938 312.84375 150.054688 C 313.847656 149.023438 314.824219 147.960938 315.761719 146.871094 C 316.703125 145.777344 317.609375 144.660156 318.480469 143.511719 C 319.351562 142.367188 320.1875 141.191406 320.988281 139.996094 C 321.789062 138.796875 322.550781 137.574219 323.273438 136.332031 C 324 135.085938 324.683594 133.820312 325.332031 132.53125 C 325.976562 131.246094 326.585938 129.941406 327.152344 128.613281 C 327.71875 127.289062 328.242188 125.949219 328.726562 124.59375 C 329.210938 123.238281 329.65625 121.867188 330.054688 120.484375 C 330.457031 119.097656 330.8125 117.703125 331.128906 116.300781 C 331.441406 114.894531 331.710938 113.480469 331.941406 112.058594 C 332.167969 110.632812 332.351562 109.207031 332.492188 107.773438 C 332.632812 106.339844 332.726562 104.902344 332.78125 103.464844 C 332.832031 102.023438 332.839844 100.582031 332.800781 99.144531 C 332.765625 97.703125 332.683594 96.265625 332.558594 94.832031 C 332.433594 93.394531 332.265625 91.964844 332.054688 90.542969 C 331.839844 89.117188 331.585938 87.699219 331.285156 86.292969 C 330.984375 84.882812 330.640625 83.484375 330.257812 82.097656 C 329.871094 80.707031 329.441406 79.332031 328.972656 77.972656 C 328.503906 76.609375 327.992188 75.265625 327.4375 73.933594 C 326.886719 72.605469 326.292969 71.292969 325.660156 70 C 325.027344 68.703125 324.355469 67.429688 323.640625 66.179688 C 322.929688 64.925781 322.183594 63.695312 321.394531 62.492188 C 320.609375 61.285156 319.785156 60.101562 318.925781 58.945312 C 318.066406 57.789062 317.171875 56.664062 316.242188 55.5625 C 315.3125 54.460938 314.351562 53.390625 313.355469 52.347656 C 312.363281 51.304688 311.335938 50.292969 310.28125 49.316406 C 309.222656 48.335938 308.136719 47.390625 307.023438 46.480469 C 305.90625 45.566406 304.765625 44.691406 303.597656 43.847656 C 302.429688 43.003906 301.234375 42.199219 300.015625 41.429688 C 298.800781 40.660156 297.558594 39.929688 296.296875 39.238281 C 295.03125 38.546875 293.75 37.894531 292.445312 37.277344 C 291.144531 36.664062 289.824219 36.09375 288.484375 35.558594 C 287.144531 35.027344 285.792969 34.535156 284.425781 34.085938 C 283.054688 33.636719 281.675781 33.230469 280.28125 32.863281 C 278.886719 32.5 277.484375 32.175781 276.070312 31.898438 C 274.65625 31.621094 273.238281 31.386719 271.808594 31.195312 C 270.382812 31.003906 268.949219 30.855469 267.511719 30.75 C 266.074219 30.648438 264.636719 30.589844 263.195312 30.574219 C 261.757812 30.558594 260.316406 30.589844 258.878906 30.660156 C 257.441406 30.734375 256.003906 30.851562 254.574219 31.011719 C 253.140625 31.175781 251.71875 31.378906 250.296875 31.628906 C 248.878906 31.878906 247.46875 32.171875 246.070312 32.507812 C 244.667969 32.839844 243.277344 33.21875 241.902344 33.640625 C 240.523438 34.0625 239.160156 34.523438 237.8125 35.027344 C 236.460938 35.535156 235.128906 36.078125 233.8125 36.664062 C 232.496094 37.253906 231.203125 37.878906 229.925781 38.542969 C 228.648438 39.210938 227.390625 39.914062 226.15625 40.660156 C 224.921875 41.402344 223.714844 42.183594 222.527344 43 C 221.339844 43.816406 220.183594 44.671875 219.046875 45.558594 C 217.914062 46.449219 216.808594 47.371094 215.730469 48.328125 C 214.65625 49.285156 213.609375 50.273438 212.59375 51.292969 C 212.082031 51.78125 211.527344 52.21875 210.933594 52.601562 C 210.339844 52.980469 209.710938 53.300781 209.054688 53.5625 C 208.398438 53.824219 207.722656 54.019531 207.027344 54.148438 C 206.332031 54.277344 205.628906 54.339844 204.921875 54.332031 C 204.214844 54.324219 203.515625 54.25 202.824219 54.105469 C 202.128906 53.964844 201.457031 53.757812 200.804688 53.484375 C 200.152344 53.210938 199.53125 52.878906 198.945312 52.484375 C 198.355469 52.09375 197.8125 51.644531 197.3125 51.148438 C 196.808594 50.648438 196.359375 50.105469 195.964844 49.519531 C 195.570312 48.933594 195.234375 48.316406 194.957031 47.664062 C 194.679688 47.015625 194.46875 46.34375 194.324219 45.652344 C 194.175781 44.960938 194.097656 44.261719 194.089844 43.554688 C 194.078125 42.847656 194.136719 42.144531 194.261719 41.449219 C 194.386719 40.753906 194.578125 40.074219 194.835938 39.417969 C 195.089844 38.757812 195.410156 38.128906 195.789062 37.53125 C 196.167969 36.9375 196.601562 36.378906 197.085938 35.867188 C 198.417969 34.527344 199.789062 33.234375 201.203125 31.980469 C 202.613281 30.726562 204.0625 29.515625 205.546875 28.351562 C 207.035156 27.1875 208.554688 26.070312 210.109375 24.996094 C 211.664062 23.925781 213.25 22.902344 214.867188 21.929688 C 216.484375 20.953125 218.132812 20.03125 219.804688 19.15625 C 221.480469 18.285156 223.179688 17.464844 224.902344 16.695312 C 226.628906 15.925781 228.375 15.210938 230.144531 14.550781 C 231.910156 13.890625 233.699219 13.28125 235.503906 12.730469 C 237.308594 12.179688 239.128906 11.683594 240.96875 11.246094 C 242.804688 10.804688 244.652344 10.421875 246.511719 10.09375 C 248.371094 9.769531 250.238281 9.5 252.113281 9.289062 C 253.992188 9.078125 255.871094 8.921875 257.757812 8.828125 C 259.644531 8.730469 261.53125 8.691406 263.417969 8.710938 C 265.304688 8.730469 267.191406 8.808594 269.074219 8.945312 C 270.957031 9.082031 272.835938 9.273438 274.707031 9.523438 C 276.578125 9.777344 278.441406 10.085938 280.292969 10.449219 C 282.144531 10.816406 283.984375 11.234375 285.8125 11.714844 C 287.636719 12.191406 289.449219 12.726562 291.242188 13.316406 C 293.035156 13.90625 294.808594 14.550781 296.5625 15.246094 C 298.316406 15.945312 300.050781 16.695312 301.757812 17.5 C 303.464844 18.304688 305.148438 19.164062 306.800781 20.070312 C 308.457031 20.976562 310.085938 21.9375 311.679688 22.945312 C 313.277344 23.953125 314.839844 25.007812 316.375 26.113281 C 317.90625 27.214844 319.402344 28.363281 320.863281 29.5625 C 322.324219 30.757812 323.746094 31.996094 325.132812 33.277344 C 326.519531 34.5625 327.863281 35.886719 329.164062 37.253906 C 330.46875 38.617188 331.730469 40.023438 332.949219 41.464844 C 334.164062 42.910156 335.335938 44.386719 336.464844 45.902344 C 337.589844 47.417969 338.671875 48.964844 339.703125 50.546875 C 340.734375 52.128906 341.714844 53.742188 342.648438 55.382812 C 343.582031 57.023438 344.460938 58.691406 345.292969 60.386719 C 346.121094 62.085938 346.898438 63.804688 347.625 65.546875 C 348.347656 67.292969 349.019531 69.054688 349.636719 70.839844 C 350.25 72.625 350.8125 74.425781 351.316406 76.246094 C 351.824219 78.066406 352.273438 79.898438 352.664062 81.746094 C 353.058594 83.589844 353.394531 85.449219 353.671875 87.316406 C 353.953125 89.183594 354.175781 91.058594 354.339844 92.9375 C 354.5 94.820312 354.609375 96.703125 354.65625 98.589844 C 354.703125 100.480469 354.695312 102.367188 354.625 104.253906 C 354.558594 106.140625 354.433594 108.023438 354.25 109.902344 C 354.066406 111.78125 353.824219 113.652344 353.527344 115.515625 C 353.230469 117.382812 352.875 119.234375 352.460938 121.078125 C 352.050781 122.921875 351.582031 124.75 351.054688 126.5625 C 350.53125 128.375 349.953125 130.171875 349.316406 131.949219 C 348.683594 133.730469 347.992188 135.484375 347.25 137.222656 C 346.507812 138.957031 345.714844 140.667969 344.867188 142.355469 C 344.019531 144.042969 343.117188 145.703125 342.167969 147.335938 C 341.21875 148.964844 340.222656 150.566406 339.171875 152.136719 C 338.125 153.707031 337.03125 155.246094 335.886719 156.75 C 334.746094 158.253906 333.558594 159.71875 332.324219 161.148438 C 331.09375 162.578125 329.816406 163.972656 328.5 165.324219 C 327.179688 166.675781 325.824219 167.984375 324.425781 169.253906 C 323.027344 170.523438 321.589844 171.746094 320.117188 172.929688 C 318.644531 174.109375 317.136719 175.242188 315.589844 176.332031 C 314.046875 177.417969 312.472656 178.457031 310.867188 179.449219 C 309.257812 180.441406 307.625 181.378906 305.957031 182.269531 C 304.292969 183.160156 302.601562 184 300.886719 184.789062 C 299.171875 185.574219 297.429688 186.308594 295.667969 186.988281 C 293.910156 187.667969 292.128906 188.292969 290.328125 188.863281 C 288.527344 189.433594 286.710938 189.949219 284.882812 190.410156 C 283.050781 190.867188 281.207031 191.269531 279.351562 191.617188 C 277.492188 191.960938 275.628906 192.25 273.753906 192.480469 C 271.878906 192.714844 270 192.886719 268.117188 193.003906 C 266.234375 193.117188 264.347656 193.175781 262.457031 193.175781 Z M 262.457031 193.183594 " clip-rule="nonzero"/></clipPath><linearGradient x1="33.7612" gradientTransform="matrix(0.802602, 0, 0, 0.802602, -19.487933, -99.700254)" y1="250" x2="466.223596" gradientUnits="userSpaceOnUse" y2="250" id="7df9ca8a80"><stop stop-opacity="1" stop-color="rgb(100%, 11.399841%, 14.498901%)" offset="0"/><stop stop-opacity="1" stop-color="rgb(99.537659%, 11.494446%, 15.1474%)" offset="0.00390625"/><stop stop-opacity="1" stop-color="rgb(99.075317%, 11.58905%, 15.797424%)" offset="0.0078125"/><stop stop-opacity="1" stop-color="rgb(98.609924%, 11.685181%, 16.452026%)" offset="0.0117188"/><stop stop-opacity="1" stop-color="rgb(98.144531%, 11.781311%, 17.108154%)" offset="0.015625"/><stop stop-opacity="1" stop-color="rgb(97.677612%, 11.875916%, 17.762756%)" offset="0.0195312"/><stop stop-opacity="1" stop-color="rgb(97.212219%, 11.972046%, 18.417358%)" offset="0.0234375"/><stop stop-opacity="1" stop-color="rgb(96.746826%, 12.068176%, 19.07196%)" offset="0.0273438"/><stop stop-opacity="1" stop-color="rgb(96.281433%, 12.164307%, 19.728088%)" offset="0.03125"/><stop stop-opacity="1" stop-color="rgb(95.814514%, 12.258911%, 20.38269%)" offset="0.0351562"/><stop stop-opacity="1" stop-color="rgb(95.349121%, 12.355042%, 21.037292%)" offset="0.0390625"/><stop stop-opacity="1" stop-color="rgb(94.883728%, 12.451172%, 21.691895%)" offset="0.0429688"/><stop stop-opacity="1" stop-color="rgb(94.418335%, 12.547302%, 22.348022%)" offset="0.046875"/><stop stop-opacity="1" stop-color="rgb(93.952942%, 12.641907%, 23.002625%)" offset="0.0507813"/><stop stop-opacity="1" stop-color="rgb(93.487549%, 12.738037%, 23.657227%)" offset="0.0546875"/><stop stop-opacity="1" stop-color="rgb(93.02063%, 12.834167%, 24.311829%)" offset="0.0585938"/><stop stop-opacity="1" stop-color="rgb(92.555237%, 12.930298%, 24.966431%)" offset="0.0625"/><stop stop-opacity="1" stop-color="rgb(92.089844%, 13.024902%, 25.621033%)" offset="0.0664062"/><stop stop-opacity="1" stop-color="rgb(91.624451%, 13.121033%, 26.277161%)" offset="0.0703125"/><stop stop-opacity="1" stop-color="rgb(91.157532%, 13.217163%, 26.931763%)" offset="0.0742187"/><stop stop-opacity="1" stop-color="rgb(90.692139%, 13.313293%, 27.586365%)" offset="0.078125"/><stop stop-opacity="1" stop-color="rgb(90.226746%, 13.407898%, 28.240967%)" offset="0.0820312"/><stop stop-opacity="1" stop-color="rgb(89.761353%, 13.504028%, 28.897095%)" offset="0.0859375"/><stop stop-opacity="1" stop-color="rgb(89.294434%, 13.600159%, 29.551697%)" offset="0.0898437"/><stop stop-opacity="1" stop-color="rgb(88.829041%, 13.696289%, 30.206299%)" offset="0.09375"/><stop stop-opacity="1" stop-color="rgb(88.363647%, 13.790894%, 30.860901%)" offset="0.0976562"/><stop stop-opacity="1" stop-color="rgb(87.898254%, 13.887024%, 31.517029%)" offset="0.101562"/><stop stop-opacity="1" stop-color="rgb(87.431335%, 13.983154%, 32.171631%)" offset="0.105469"/><stop stop-opacity="1" stop-color="rgb(86.965942%, 14.079285%, 32.826233%)" offset="0.109375"/><stop stop-opacity="1" stop-color="rgb(86.500549%, 14.173889%, 33.480835%)" offset="0.113281"/><stop stop-opacity="1" stop-color="rgb(86.035156%, 14.27002%, 34.135437%)" offset="0.117187"/><stop stop-opacity="1" stop-color="rgb(85.569763%, 14.36615%, 34.790039%)" offset="0.121094"/><stop stop-opacity="1" stop-color="rgb(85.10437%, 14.46228%, 35.446167%)" offset="0.125"/><stop stop-opacity="1" stop-color="rgb(84.637451%, 14.556885%, 36.100769%)" offset="0.128906"/><stop stop-opacity="1" stop-color="rgb(84.172058%, 14.653015%, 36.755371%)" offset="0.132812"/><stop stop-opacity="1" stop-color="rgb(83.706665%, 14.749146%, 37.409973%)" offset="0.136719"/><stop stop-opacity="1" stop-color="rgb(83.241272%, 14.845276%, 38.066101%)" offset="0.140625"/><stop stop-opacity="1" stop-color="rgb(82.774353%, 14.93988%, 38.720703%)" offset="0.144531"/><stop stop-opacity="1" stop-color="rgb(82.30896%, 15.036011%, 39.375305%)" offset="0.148438"/><stop stop-opacity="1" stop-color="rgb(81.843567%, 15.132141%, 40.029907%)" offset="0.152344"/><stop stop-opacity="1" stop-color="rgb(81.378174%, 15.228271%, 40.686035%)" offset="0.15625"/><stop stop-opacity="1" stop-color="rgb(80.911255%, 15.322876%, 41.340637%)" offset="0.160156"/><stop stop-opacity="1" stop-color="rgb(80.445862%, 15.419006%, 41.995239%)" offset="0.164062"/><stop stop-opacity="1" stop-color="rgb(79.980469%, 15.515137%, 42.649841%)" offset="0.167969"/><stop stop-opacity="1" stop-color="rgb(79.515076%, 15.611267%, 43.305969%)" offset="0.171875"/><stop stop-opacity="1" stop-color="rgb(79.048157%, 15.705872%, 43.960571%)" offset="0.175781"/><stop stop-opacity="1" stop-color="rgb(78.582764%, 15.802002%, 44.615173%)" offset="0.179688"/><stop stop-opacity="1" stop-color="rgb(78.117371%, 15.898132%, 45.269775%)" offset="0.183594"/><stop stop-opacity="1" stop-color="rgb(77.651978%, 15.994263%, 45.924377%)" offset="0.1875"/><stop stop-opacity="1" stop-color="rgb(77.186584%, 16.088867%, 46.578979%)" offset="0.191406"/><stop stop-opacity="1" stop-color="rgb(76.721191%, 16.184998%, 47.235107%)" offset="0.195312"/><stop stop-opacity="1" stop-color="rgb(76.254272%, 16.281128%, 47.889709%)" offset="0.199219"/><stop stop-opacity="1" stop-color="rgb(75.788879%, 16.377258%, 48.544312%)" offset="0.203125"/><stop stop-opacity="1" stop-color="rgb(75.323486%, 16.471863%, 49.198914%)" offset="0.207031"/><stop stop-opacity="1" stop-color="rgb(74.858093%, 16.567993%, 49.855042%)" offset="0.210937"/><stop stop-opacity="1" stop-color="rgb(74.391174%, 16.664124%, 50.509644%)" offset="0.214844"/><stop stop-opacity="1" stop-color="rgb(73.925781%, 16.760254%, 51.164246%)" offset="0.21875"/><stop stop-opacity="1" stop-color="rgb(73.460388%, 16.854858%, 51.818848%)" offset="0.222656"/><stop stop-opacity="1" stop-color="rgb(72.994995%, 16.950989%, 52.474976%)" offset="0.226562"/><stop stop-opacity="1" stop-color="rgb(72.528076%, 17.047119%, 53.129578%)" offset="0.230469"/><stop stop-opacity="1" stop-color="rgb(72.062683%, 17.14325%, 53.78418%)" offset="0.234375"/><stop stop-opacity="1" stop-color="rgb(71.59729%, 17.237854%, 54.438782%)" offset="0.238281"/><stop stop-opacity="1" stop-color="rgb(71.131897%, 17.333984%, 55.093384%)" offset="0.242187"/><stop stop-opacity="1" stop-color="rgb(70.664978%, 17.430115%, 55.747986%)" offset="0.246094"/><stop stop-opacity="1" stop-color="rgb(70.199585%, 17.526245%, 56.404114%)" offset="0.25"/><stop stop-opacity="1" stop-color="rgb(69.734192%, 17.62085%, 57.058716%)" offset="0.253906"/><stop stop-opacity="1" stop-color="rgb(69.268799%, 17.71698%, 57.713318%)" offset="0.257812"/><stop stop-opacity="1" stop-color="rgb(68.803406%, 17.81311%, 58.36792%)" offset="0.261719"/><stop stop-opacity="1" stop-color="rgb(68.338013%, 17.909241%, 59.024048%)" offset="0.265625"/><stop stop-opacity="1" stop-color="rgb(67.871094%, 18.003845%, 59.67865%)" offset="0.269531"/><stop stop-opacity="1" stop-color="rgb(67.405701%, 18.099976%, 60.333252%)" offset="0.273438"/><stop stop-opacity="1" stop-color="rgb(66.940308%, 18.196106%, 60.987854%)" offset="0.277344"/><stop stop-opacity="1" stop-color="rgb(66.474915%, 18.292236%, 61.643982%)" offset="0.28125"/><stop stop-opacity="1" stop-color="rgb(66.007996%, 18.386841%, 62.298584%)" offset="0.285156"/><stop stop-opacity="1" stop-color="rgb(65.542603%, 18.482971%, 62.953186%)" offset="0.289062"/><stop stop-opacity="1" stop-color="rgb(65.077209%, 18.579102%, 63.607788%)" offset="0.292969"/><stop stop-opacity="1" stop-color="rgb(64.611816%, 18.675232%, 64.263916%)" offset="0.296875"/><stop stop-opacity="1" stop-color="rgb(64.144897%, 18.769836%, 64.918518%)" offset="0.300781"/><stop stop-opacity="1" stop-color="rgb(63.679504%, 18.865967%, 65.57312%)" offset="0.304688"/><stop stop-opacity="1" stop-color="rgb(63.214111%, 18.962097%, 66.227722%)" offset="0.308594"/><stop stop-opacity="1" stop-color="rgb(62.748718%, 19.058228%, 66.882324%)" offset="0.3125"/><stop stop-opacity="1" stop-color="rgb(62.281799%, 19.152832%, 67.536926%)" offset="0.316406"/><stop stop-opacity="1" stop-color="rgb(61.816406%, 19.248962%, 68.193054%)" offset="0.320312"/><stop stop-opacity="1" stop-color="rgb(61.351013%, 19.345093%, 68.847656%)" offset="0.324219"/><stop stop-opacity="1" stop-color="rgb(60.88562%, 19.441223%, 69.502258%)" offset="0.328125"/><stop stop-opacity="1" stop-color="rgb(60.420227%, 19.535828%, 70.15686%)" offset="0.332031"/><stop stop-opacity="1" stop-color="rgb(59.954834%, 19.631958%, 70.812988%)" offset="0.335937"/><stop stop-opacity="1" stop-color="rgb(59.487915%, 19.728088%, 71.46759%)" offset="0.339844"/><stop stop-opacity="1" stop-color="rgb(59.022522%, 19.824219%, 72.122192%)" offset="0.34375"/><stop stop-opacity="1" stop-color="rgb(58.557129%, 19.918823%, 72.776794%)" offset="0.347656"/><stop stop-opacity="1" stop-color="rgb(58.091736%, 20.014954%, 73.432922%)" offset="0.351562"/><stop stop-opacity="1" stop-color="rgb(57.624817%, 20.111084%, 74.087524%)" offset="0.355469"/><stop stop-opacity="1" stop-color="rgb(57.159424%, 20.207214%, 74.742126%)" offset="0.359375"/><stop stop-opacity="1" stop-color="rgb(56.694031%, 20.301819%, 75.396729%)" offset="0.363281"/><stop stop-opacity="1" stop-color="rgb(56.228638%, 20.397949%, 76.051331%)" offset="0.367187"/><stop stop-opacity="1" stop-color="rgb(55.761719%, 20.49408%, 76.705933%)" offset="0.371094"/><stop stop-opacity="1" stop-color="rgb(55.296326%, 20.59021%, 77.362061%)" offset="0.375"/><stop stop-opacity="1" stop-color="rgb(54.830933%, 20.684814%, 78.016663%)" offset="0.378906"/><stop stop-opacity="1" stop-color="rgb(54.36554%, 20.780945%, 78.671265%)" offset="0.382812"/><stop stop-opacity="1" stop-color="rgb(53.898621%, 20.877075%, 79.325867%)" offset="0.386719"/><stop stop-opacity="1" stop-color="rgb(53.433228%, 20.973206%, 79.981995%)" offset="0.390625"/><stop stop-opacity="1" stop-color="rgb(52.967834%, 21.06781%, 80.636597%)" offset="0.394531"/><stop stop-opacity="1" stop-color="rgb(52.502441%, 21.16394%, 81.291199%)" offset="0.398437"/><stop stop-opacity="1" stop-color="rgb(52.037048%, 21.260071%, 81.945801%)" offset="0.402344"/><stop stop-opacity="1" stop-color="rgb(51.571655%, 21.356201%, 82.601929%)" offset="0.40625"/><stop stop-opacity="1" stop-color="rgb(51.104736%, 21.450806%, 83.256531%)" offset="0.410156"/><stop stop-opacity="1" stop-color="rgb(50.639343%, 21.546936%, 83.911133%)" offset="0.414062"/><stop stop-opacity="1" stop-color="rgb(50.17395%, 21.643066%, 84.565735%)" offset="0.417969"/><stop stop-opacity="1" stop-color="rgb(49.708557%, 21.739197%, 85.221863%)" offset="0.421875"/><stop stop-opacity="1" stop-color="rgb(49.241638%, 21.833801%, 85.876465%)" offset="0.425781"/><stop stop-opacity="1" stop-color="rgb(48.776245%, 21.929932%, 86.531067%)" offset="0.429687"/><stop stop-opacity="1" stop-color="rgb(48.310852%, 22.026062%, 87.185669%)" offset="0.433594"/><stop stop-opacity="1" stop-color="rgb(47.845459%, 22.122192%, 87.840271%)" offset="0.4375"/><stop stop-opacity="1" stop-color="rgb(47.37854%, 22.216797%, 88.494873%)" offset="0.441406"/><stop stop-opacity="1" stop-color="rgb(46.913147%, 22.312927%, 89.151001%)" offset="0.445312"/><stop stop-opacity="1" stop-color="rgb(46.447754%, 22.409058%, 89.805603%)" offset="0.449219"/><stop stop-opacity="1" stop-color="rgb(45.982361%, 22.505188%, 90.460205%)" offset="0.453125"/><stop stop-opacity="1" stop-color="rgb(45.515442%, 22.599792%, 91.114807%)" offset="0.457031"/><stop stop-opacity="1" stop-color="rgb(45.050049%, 22.695923%, 91.770935%)" offset="0.460938"/><stop stop-opacity="1" stop-color="rgb(44.584656%, 22.792053%, 92.425537%)" offset="0.464844"/><stop stop-opacity="1" stop-color="rgb(44.119263%, 22.888184%, 93.080139%)" offset="0.46875"/><stop stop-opacity="1" stop-color="rgb(43.65387%, 22.982788%, 93.734741%)" offset="0.472656"/><stop stop-opacity="1" stop-color="rgb(43.188477%, 23.078918%, 94.390869%)" offset="0.476562"/><stop stop-opacity="1" stop-color="rgb(42.721558%, 23.175049%, 95.045471%)" offset="0.480469"/><stop stop-opacity="1" stop-color="rgb(42.256165%, 23.271179%, 95.700073%)" offset="0.484375"/><stop stop-opacity="1" stop-color="rgb(41.790771%, 23.365784%, 96.354675%)" offset="0.488281"/><stop stop-opacity="1" stop-color="rgb(41.325378%, 23.461914%, 97.009277%)" offset="0.492188"/><stop stop-opacity="1" stop-color="rgb(40.858459%, 23.558044%, 97.663879%)" offset="0.496094"/><stop stop-opacity="1" stop-color="rgb(40.393066%, 23.654175%, 98.320007%)" offset="0.5"/><stop stop-opacity="1" stop-color="rgb(39.927673%, 23.748779%, 98.974609%)" offset="0.503906"/><stop stop-opacity="1" stop-color="rgb(39.46228%, 23.84491%, 99.629211%)" offset="0.507813"/><stop stop-opacity="1" stop-color="rgb(39.678955%, 23.800659%, 99.324036%)" offset="0.511719"/><stop stop-opacity="1" stop-color="rgb(39.89563%, 23.756409%, 99.020386%)" offset="0.515625"/><stop stop-opacity="1" stop-color="rgb(40.379333%, 23.655701%, 98.338318%)" offset="0.519531"/><stop stop-opacity="1" stop-color="rgb(40.864563%, 23.556519%, 97.657776%)" offset="0.523438"/><stop stop-opacity="1" stop-color="rgb(41.348267%, 23.457336%, 96.975708%)" offset="0.527344"/><stop stop-opacity="1" stop-color="rgb(41.833496%, 23.358154%, 96.29364%)" offset="0.53125"/><stop stop-opacity="1" stop-color="rgb(42.318726%, 23.257446%, 95.611572%)" offset="0.535156"/><stop stop-opacity="1" stop-color="rgb(42.803955%, 23.158264%, 94.93103%)" offset="0.539062"/><stop stop-opacity="1" stop-color="rgb(43.287659%, 23.057556%, 94.248962%)" offset="0.542969"/><stop stop-opacity="1" stop-color="rgb(43.772888%, 22.958374%, 93.566895%)" offset="0.546875"/><stop stop-opacity="1" stop-color="rgb(44.258118%, 22.859192%, 92.884827%)" offset="0.550781"/><stop stop-opacity="1" stop-color="rgb(44.743347%, 22.76001%, 92.204285%)" offset="0.554688"/><stop stop-opacity="1" stop-color="rgb(45.227051%, 22.659302%, 91.522217%)" offset="0.558594"/><stop stop-opacity="1" stop-color="rgb(45.71228%, 22.56012%, 90.840149%)" offset="0.5625"/><stop stop-opacity="1" stop-color="rgb(46.195984%, 22.459412%, 90.158081%)" offset="0.566406"/><stop stop-opacity="1" stop-color="rgb(46.681213%, 22.360229%, 89.477539%)" offset="0.570312"/><stop stop-opacity="1" stop-color="rgb(47.166443%, 22.261047%, 88.795471%)" offset="0.574219"/><stop stop-opacity="1" stop-color="rgb(47.651672%, 22.161865%, 88.113403%)" offset="0.578125"/><stop stop-opacity="1" stop-color="rgb(48.135376%, 22.061157%, 87.431335%)" offset="0.582031"/><stop stop-opacity="1" stop-color="rgb(48.620605%, 21.961975%, 86.750793%)" offset="0.585937"/><stop stop-opacity="1" stop-color="rgb(49.104309%, 21.862793%, 86.068726%)" offset="0.589844"/><stop stop-opacity="1" stop-color="rgb(49.589539%, 21.763611%, 85.386658%)" offset="0.59375"/><stop stop-opacity="1" stop-color="rgb(50.074768%, 21.662903%, 84.70459%)" offset="0.597656"/><stop stop-opacity="1" stop-color="rgb(50.559998%, 21.563721%, 84.024048%)" offset="0.601562"/><stop stop-opacity="1" stop-color="rgb(51.043701%, 21.463013%, 83.34198%)" offset="0.605469"/><stop stop-opacity="1" stop-color="rgb(51.528931%, 21.363831%, 82.659912%)" offset="0.609375"/><stop stop-opacity="1" stop-color="rgb(52.012634%, 21.264648%, 81.977844%)" offset="0.613281"/><stop stop-opacity="1" stop-color="rgb(52.497864%, 21.165466%, 81.297302%)" offset="0.617188"/><stop stop-opacity="1" stop-color="rgb(52.983093%, 21.064758%, 80.615234%)" offset="0.621094"/><stop stop-opacity="1" stop-color="rgb(53.468323%, 20.965576%, 79.933167%)" offset="0.625"/><stop stop-opacity="1" stop-color="rgb(53.952026%, 20.864868%, 79.251099%)" offset="0.628906"/><stop stop-opacity="1" stop-color="rgb(54.437256%, 20.765686%, 78.570557%)" offset="0.632812"/><stop stop-opacity="1" stop-color="rgb(54.920959%, 20.666504%, 77.888489%)" offset="0.636719"/><stop stop-opacity="1" stop-color="rgb(55.406189%, 20.567322%, 77.206421%)" offset="0.640625"/><stop stop-opacity="1" stop-color="rgb(55.891418%, 20.466614%, 76.524353%)" offset="0.644531"/><stop stop-opacity="1" stop-color="rgb(56.376648%, 20.367432%, 75.843811%)" offset="0.648438"/><stop stop-opacity="1" stop-color="rgb(56.860352%, 20.26825%, 75.161743%)" offset="0.652344"/><stop stop-opacity="1" stop-color="rgb(57.345581%, 20.169067%, 74.481201%)" offset="0.65625"/><stop stop-opacity="1" stop-color="rgb(57.830811%, 20.068359%, 73.799133%)" offset="0.660156"/><stop stop-opacity="1" stop-color="rgb(58.31604%, 19.969177%, 73.117065%)" offset="0.664062"/><stop stop-opacity="1" stop-color="rgb(58.799744%, 19.868469%, 72.434998%)" offset="0.667969"/><stop stop-opacity="1" stop-color="rgb(59.284973%, 19.769287%, 71.754456%)" offset="0.671875"/><stop stop-opacity="1" stop-color="rgb(59.768677%, 19.670105%, 71.072388%)" offset="0.675781"/><stop stop-opacity="1" stop-color="rgb(60.253906%, 19.570923%, 70.39032%)" offset="0.679687"/><stop stop-opacity="1" stop-color="rgb(60.739136%, 19.470215%, 69.708252%)" offset="0.683594"/><stop stop-opacity="1" stop-color="rgb(61.224365%, 19.371033%, 69.02771%)" offset="0.6875"/><stop stop-opacity="1" stop-color="rgb(61.708069%, 19.270325%, 68.345642%)" offset="0.691406"/><stop stop-opacity="1" stop-color="rgb(62.193298%, 19.171143%, 67.663574%)" offset="0.695312"/><stop stop-opacity="1" stop-color="rgb(62.677002%, 19.07196%, 66.981506%)" offset="0.699219"/><stop stop-opacity="1" stop-color="rgb(63.162231%, 18.972778%, 66.300964%)" offset="0.703125"/><stop stop-opacity="1" stop-color="rgb(63.647461%, 18.87207%, 65.618896%)" offset="0.707031"/><stop stop-opacity="1" stop-color="rgb(64.13269%, 18.772888%, 64.936829%)" offset="0.710937"/><stop stop-opacity="1" stop-color="rgb(64.616394%, 18.673706%, 64.254761%)" offset="0.714844"/><stop stop-opacity="1" stop-color="rgb(65.101624%, 18.574524%, 63.574219%)" offset="0.71875"/><stop stop-opacity="1" stop-color="rgb(65.585327%, 18.473816%, 62.892151%)" offset="0.722656"/><stop stop-opacity="1" stop-color="rgb(66.070557%, 18.374634%, 62.210083%)" offset="0.726562"/><stop stop-opacity="1" stop-color="rgb(66.555786%, 18.273926%, 61.528015%)" offset="0.730469"/><stop stop-opacity="1" stop-color="rgb(67.041016%, 18.174744%, 60.847473%)" offset="0.734375"/><stop stop-opacity="1" stop-color="rgb(67.524719%, 18.075562%, 60.165405%)" offset="0.738281"/><stop stop-opacity="1" stop-color="rgb(68.009949%, 17.976379%, 59.483337%)" offset="0.742188"/><stop stop-opacity="1" stop-color="rgb(68.495178%, 17.875671%, 58.80127%)" offset="0.746094"/><stop stop-opacity="1" stop-color="rgb(68.980408%, 17.776489%, 58.120728%)" offset="0.75"/><stop stop-opacity="1" stop-color="rgb(69.464111%, 17.675781%, 57.43866%)" offset="0.753906"/><stop stop-opacity="1" stop-color="rgb(69.949341%, 17.576599%, 56.756592%)" offset="0.757812"/><stop stop-opacity="1" stop-color="rgb(70.433044%, 17.477417%, 56.074524%)" offset="0.761719"/><stop stop-opacity="1" stop-color="rgb(70.918274%, 17.378235%, 55.393982%)" offset="0.765625"/><stop stop-opacity="1" stop-color="rgb(71.403503%, 17.277527%, 54.711914%)" offset="0.769531"/><stop stop-opacity="1" stop-color="rgb(71.888733%, 17.178345%, 54.029846%)" offset="0.773438"/><stop stop-opacity="1" stop-color="rgb(72.372437%, 17.079163%, 53.347778%)" offset="0.777344"/><stop stop-opacity="1" stop-color="rgb(72.857666%, 16.97998%, 52.667236%)" offset="0.78125"/><stop stop-opacity="1" stop-color="rgb(73.34137%, 16.879272%, 51.985168%)" offset="0.785156"/><stop stop-opacity="1" stop-color="rgb(73.826599%, 16.78009%, 51.303101%)" offset="0.789062"/><stop stop-opacity="1" stop-color="rgb(74.311829%, 16.679382%, 50.621033%)" offset="0.792969"/><stop stop-opacity="1" stop-color="rgb(74.797058%, 16.5802%, 49.940491%)" offset="0.796875"/><stop stop-opacity="1" stop-color="rgb(75.280762%, 16.481018%, 49.258423%)" offset="0.800781"/><stop stop-opacity="1" stop-color="rgb(75.765991%, 16.381836%, 48.577881%)" offset="0.804687"/><stop stop-opacity="1" stop-color="rgb(76.249695%, 16.281128%, 47.895813%)" offset="0.808594"/><stop stop-opacity="1" stop-color="rgb(76.734924%, 16.181946%, 47.213745%)" offset="0.8125"/><stop stop-opacity="1" stop-color="rgb(77.220154%, 16.081238%, 46.531677%)" offset="0.816406"/><stop stop-opacity="1" stop-color="rgb(77.705383%, 15.982056%, 45.851135%)" offset="0.820312"/><stop stop-opacity="1" stop-color="rgb(78.189087%, 15.882874%, 45.169067%)" offset="0.824219"/><stop stop-opacity="1" stop-color="rgb(78.674316%, 15.783691%, 44.487%)" offset="0.828125"/><stop stop-opacity="1" stop-color="rgb(79.15802%, 15.682983%, 43.804932%)" offset="0.832031"/><stop stop-opacity="1" stop-color="rgb(79.64325%, 15.583801%, 43.12439%)" offset="0.835938"/><stop stop-opacity="1" stop-color="rgb(80.128479%, 15.484619%, 42.442322%)" offset="0.839844"/><stop stop-opacity="1" stop-color="rgb(80.613708%, 15.385437%, 41.760254%)" offset="0.84375"/><stop stop-opacity="1" stop-color="rgb(81.097412%, 15.284729%, 41.078186%)" offset="0.847656"/><stop stop-opacity="1" stop-color="rgb(81.582642%, 15.185547%, 40.397644%)" offset="0.851562"/><stop stop-opacity="1" stop-color="rgb(82.067871%, 15.084839%, 39.715576%)" offset="0.855469"/><stop stop-opacity="1" stop-color="rgb(82.553101%, 14.985657%, 39.033508%)" offset="0.859375"/><stop stop-opacity="1" stop-color="rgb(83.036804%, 14.886475%, 38.35144%)" offset="0.863281"/><stop stop-opacity="1" stop-color="rgb(83.522034%, 14.787292%, 37.670898%)" offset="0.867188"/><stop stop-opacity="1" stop-color="rgb(84.005737%, 14.686584%, 36.988831%)" offset="0.871094"/><stop stop-opacity="1" stop-color="rgb(84.490967%, 14.587402%, 36.306763%)" offset="0.875"/><stop stop-opacity="1" stop-color="rgb(84.976196%, 14.486694%, 35.624695%)" offset="0.878906"/><stop stop-opacity="1" stop-color="rgb(85.461426%, 14.387512%, 34.944153%)" offset="0.882812"/><stop stop-opacity="1" stop-color="rgb(85.945129%, 14.28833%, 34.262085%)" offset="0.886719"/><stop stop-opacity="1" stop-color="rgb(86.430359%, 14.189148%, 33.580017%)" offset="0.890625"/><stop stop-opacity="1" stop-color="rgb(86.914062%, 14.08844%, 32.897949%)" offset="0.894531"/><stop stop-opacity="1" stop-color="rgb(87.399292%, 13.989258%, 32.217407%)" offset="0.898438"/><stop stop-opacity="1" stop-color="rgb(87.884521%, 13.890076%, 31.535339%)" offset="0.902344"/><stop stop-opacity="1" stop-color="rgb(88.369751%, 13.790894%, 30.853271%)" offset="0.90625"/><stop stop-opacity="1" stop-color="rgb(88.853455%, 13.690186%, 30.171204%)" offset="0.910156"/><stop stop-opacity="1" stop-color="rgb(89.338684%, 13.591003%, 29.490662%)" offset="0.914062"/><stop stop-opacity="1" stop-color="rgb(89.822388%, 13.490295%, 28.808594%)" offset="0.917969"/><stop stop-opacity="1" stop-color="rgb(90.307617%, 13.391113%, 28.126526%)" offset="0.921875"/><stop stop-opacity="1" stop-color="rgb(90.792847%, 13.291931%, 27.444458%)" offset="0.925781"/><stop stop-opacity="1" stop-color="rgb(91.278076%, 13.192749%, 26.763916%)" offset="0.929687"/><stop stop-opacity="1" stop-color="rgb(91.76178%, 13.092041%, 26.081848%)" offset="0.933594"/><stop stop-opacity="1" stop-color="rgb(92.247009%, 12.992859%, 25.39978%)" offset="0.9375"/><stop stop-opacity="1" stop-color="rgb(92.732239%, 12.892151%, 24.717712%)" offset="0.941406"/><stop stop-opacity="1" stop-color="rgb(93.217468%, 12.792969%, 24.03717%)" offset="0.945313"/><stop stop-opacity="1" stop-color="rgb(93.701172%, 12.693787%, 23.355103%)" offset="0.949219"/><stop stop-opacity="1" stop-color="rgb(94.186401%, 12.594604%, 22.673035%)" offset="0.953125"/><stop stop-opacity="1" stop-color="rgb(94.670105%, 12.493896%, 21.990967%)" offset="0.957031"/><stop stop-opacity="1" stop-color="rgb(95.155334%, 12.394714%, 21.310425%)" offset="0.960938"/><stop stop-opacity="1" stop-color="rgb(95.640564%, 12.295532%, 20.628357%)" offset="0.964844"/><stop stop-opacity="1" stop-color="rgb(96.125793%, 12.19635%, 19.947815%)" offset="0.96875"/><stop stop-opacity="1" stop-color="rgb(96.609497%, 12.095642%, 19.265747%)" offset="0.972656"/><stop stop-opacity="1" stop-color="rgb(97.094727%, 11.99646%, 18.583679%)" offset="0.976562"/><stop stop-opacity="1" stop-color="rgb(97.57843%, 11.895752%, 17.901611%)" offset="0.980469"/><stop stop-opacity="1" stop-color="rgb(98.06366%, 11.79657%, 17.221069%)" offset="0.984375"/><stop stop-opacity="1" stop-color="rgb(98.548889%, 11.697388%, 16.539001%)" offset="0.988281"/><stop stop-opacity="1" stop-color="rgb(99.034119%, 11.598206%, 15.856934%)" offset="0.992188"/><stop stop-opacity="1" stop-color="rgb(99.516296%, 11.499023%, 15.177917%)" offset="0.996094"/><stop stop-opacity="1" stop-color="rgb(100%, 11.399841%, 14.498901%)" offset="1"/></linearGradient></defs><g clip-path="url(#a49d6fb9ce)"><g clip-path="url(#3bd547d4bb)"><path fill="#000000" d="M 11.355469 13.9375 L 11.355469 198.433594 L 358.449219 198.433594 L 358.449219 13.9375 Z M 11.355469 13.9375 " fill-opacity="1" fill-rule="nonzero"/></g></g><g clip-path="url(#db490836f7)"><g clip-path="url(#13975346ee)"><path fill="url(#7df9ca8a80)" d="M 7.609375 8.691406 L 7.609375 193.1875 L 354.703125 193.1875 L 354.703125 8.691406 Z M 7.609375 8.691406 " fill-rule="nonzero"/></g></g></svg>